<?xml version="1.0" standalone="no"?>
<!DOCTYPE svg PUBLIC "-//W3C//DTD SVG 20010904//EN"
 "http://www.w3.org/TR/2001/REC-SVG-20010904/DTD/svg10.dtd">
<svg version="1.0" xmlns="http://www.w3.org/2000/svg"
 width="272.000000pt" height="272.000000pt" viewBox="0 0 272.000000 272.000000"
 preserveAspectRatio="xMidYMid meet">

<g transform="translate(0.000000,272.000000) scale(0.100000,-0.100000)"
fill="#000000" stroke="none">
<path d="M0 1360 l0 -1360 1360 0 1360 0 0 1360 0 1360 -1360 0 -1360 0 0
-1360z m1394 1015 c14 -93 30 -231 36 -305 17 -202 15 -194 55 -209 93 -33
203 -240 234 -441 5 -36 15 -101 21 -145 7 -44 16 -100 21 -125 l10 -45 55 -2
c83 -3 262 -39 377 -77 79 -26 114 -32 156 -29 31 2 57 5 58 7 2 2 12 49 23
104 23 116 40 319 40 472 l1 105 33 -35 c37 -41 56 -117 101 -405 31 -197 31
-195 0 -271 -36 -90 -50 -195 -38 -283 5 -39 8 -73 5 -75 -2 -2 -26 2 -53 9
-46 13 -52 12 -70 -6 -29 -29 -55 -23 -84 18 -14 21 -25 43 -25 51 0 10 -15
11 -67 5 -38 -4 -149 -8 -248 -8 -191 0 -243 9 -269 47 -18 25 -23 23 -79 -29
-42 -38 -46 -48 -61 -125 -24 -119 -63 -252 -95 -322 -15 -34 -31 -74 -35 -89
-4 -18 -13 -27 -26 -27 -11 0 -20 1 -20 3 0 1 11 47 25 102 41 162 58 318 59
562 1 200 3 223 17 223 22 0 31 39 23 101 -5 40 -13 55 -35 72 l-29 21 34 35
c19 20 44 56 55 80 18 41 18 46 3 78 -9 18 -19 33 -24 33 -4 0 -25 -23 -47
-50 -22 -28 -44 -50 -48 -49 -4 0 -14 17 -22 37 -8 21 -16 39 -17 41 -2 2 -17
-8 -34 -23 -39 -33 -64 -33 -106 -1 -36 27 -44 30 -44 15 0 -6 -7 -27 -15 -46
l-15 -36 -45 56 c-26 31 -50 56 -54 56 -5 0 -14 -14 -21 -31 -18 -42 -1 -94
49 -151 l40 -45 -29 -22 c-29 -21 -30 -25 -30 -96 0 -65 2 -75 18 -75 16 0 17
-17 18 -213 1 -255 24 -451 70 -611 18 -63 18 -66 -3 -66 -12 0 -26 19 -41 58
-45 109 -91 258 -111 359 -20 98 -23 104 -69 147 -50 49 -66 55 -76 31 -3 -9
-23 -23 -43 -32 -49 -21 -322 -29 -443 -13 -77 10 -86 10 -95 -5 -51 -87 -72
-100 -108 -67 -20 19 -26 19 -72 7 -27 -7 -53 -11 -56 -9 -4 2 -3 21 2 41 21
93 7 217 -39 332 l-25 64 32 201 c47 293 66 367 102 401 l29 29 0 -80 c1 -195
33 -507 60 -578 7 -18 19 -25 58 -30 40 -5 67 0 155 28 118 39 296 76 380 79
l56 2 10 45 c6 25 15 74 20 110 6 36 15 101 22 145 31 217 136 418 239 459 40
16 40 16 40 68 0 95 36 390 72 598 14 84 19 69 52 -155z m-150 -1059 c20 -16
14 -36 -13 -36 -24 0 -41 20 -41 47 0 25 10 23 54 -11z m272 -11 c-14 -21 -57
-28 -62 -10 -2 6 11 20 28 32 37 26 57 12 34 -22z"/>
</g>
</svg>
